HIERARCHY
ROOT joint_Root
{
	OFFSET 0.0 0.0 0.0
	CHANNELS 6 Xposition Yposition Zposition Zrotation Xrotation Yrotation 
	JOINT Hips
	{
		OFFSET -0.726466 93.3139 -2.00062
		CHANNELS 6 Xposition Yposition Zposition Zrotation Xrotation Yrotation 
		JOINT Spine
		{
			OFFSET 15.7357 0.0 0.0
			CHANNELS 6 Xposition Yposition Zposition Zrotation Xrotation Yrotation 
			JOINT Chest
			{
				OFFSET 8.98455 -0.406207 0.0
				CHANNELS 6 Xposition Yposition Zposition Zrotation Xrotation Yrotation 
				JOINT Neck
				{
					OFFSET 16.3773 0.0 0.0
					CHANNELS 6 Xposition Yposition Zposition Zrotation Xrotation Yrotation 
					JOINT Head
					{
						OFFSET 6.45672 0.0 0.0
						CHANNELS 6 Xposition Yposition Zposition Zrotation Xrotation Yrotation 
						End Site
						{
							OFFSET 0.0 0.0 0.0
						}
					}
				}
				JOINT Shoulder_L
				{
					OFFSET 12.9942 -0.242716 4.98039
					CHANNELS 6 Xposition Yposition Zposition Zrotation Xrotation Yrotation 
					JOINT UpperArm_L
					{
						OFFSET 5.34809 0.0 0.0
						CHANNELS 6 Xposition Yposition Zposition Zrotation Xrotation Yrotation 
						JOINT LowerArm_L
						{
							OFFSET 24.3286 1.87007e-05 0.0
							CHANNELS 6 Xposition Yposition Zposition Zrotation Xrotation Yrotation 
							JOINT Hand_L
							{
								OFFSET 22.2916 0.0 0.0
								CHANNELS 6 Xposition Yposition Zposition Zrotation Xrotation Yrotation 
								End Site
								{
									OFFSET 0.0 0.0 0.0
								}
							}
						}
					}
				}
				JOINT Shoulder_R
				{
					OFFSET 12.9945 -0.242716 -4.98039
					CHANNELS 6 Xposition Yposition Zposition Zrotation Xrotation Yrotation 
					JOINT UpperArm_R
					{
						OFFSET -5.34813 0.0 0.0
						CHANNELS 6 Xposition Yposition Zposition Zrotation Xrotation Yrotation 
						JOINT LowerArm_R
						{
							OFFSET -24.3289 0.000322201 0.0
							CHANNELS 6 Xposition Yposition Zposition Zrotation Xrotation Yrotation 
							JOINT Hand_R
							{
								OFFSET -22.2915 -0.000108084 0.0
								CHANNELS 6 Xposition Yposition Zposition Zrotation Xrotation Yrotation 
								End Site
								{
									OFFSET 0.0 0.0 0.0
								}
							}
						}
					}
				}
			}
		}
		JOINT UpperLeg_L
		{
			OFFSET -2.19248 -6.46944 0.0
			CHANNELS 6 Xposition Yposition Zposition Zrotation Xrotation Yrotation 
			JOINT LowerLeg_L
			{
				OFFSET 39.0811 0.0 -1.23785e-05
				CHANNELS 6 Xposition Yposition Zposition Zrotation Xrotation Yrotation 
				JOINT Foot_L
				{
					OFFSET 40.9854 0.0 -1.26872e-05
					CHANNELS 6 Xposition Yposition Zposition Zrotation Xrotation Yrotation 
					JOINT Toes_L
					{
						OFFSET 11.7543 0.0 0.0
						CHANNELS 6 Xposition Yposition Zposition Zrotation Xrotation Yrotation 
						End Site
						{
							OFFSET 0.0 0.0 0.0
						}
					}
				}
			}
		}
		JOINT UpperLeg_R
		{
			OFFSET -2.19251 6.46944 0.0
			CHANNELS 6 Xposition Yposition Zposition Zrotation Xrotation Yrotation 
			JOINT LowerLeg_R
			{
				OFFSET -39.0811 -0.00228153 -0.0401928
				CHANNELS 6 Xposition Yposition Zposition Zrotation Xrotation Yrotation 
				JOINT Foot_R
				{
					OFFSET -40.9854 0.0 0.0
					CHANNELS 6 Xposition Yposition Zposition Zrotation Xrotation Yrotation 
					JOINT Toes_R
					{
						OFFSET -11.7543 0.0 0.0
						CHANNELS 6 Xposition Yposition Zposition Zrotation Xrotation Yrotation 
						End Site
						{
							OFFSET 0.0 0.0 0.0
						}
					}
				}
			}
		}
	}
}
MOTION
Frames:	8
Frame Time:	0.0333333
0.000000 0.000000 0.000000 0.000000 0.000000 -0.000000 0.401085 92.927000 -0.407661 88.305400 -8.257880 1.774560 15.735700 0.000005 -0.000001 100.802000 87.100800 -101.039000 8.984550 -0.406207 -0.000000 -2.068240 1.106780 -0.454266 16.377300 -0.000001 -0.000001 2.025830 -1.089960 3.642300 6.456720 -0.000001 -0.000000 4.086350 0.500152 -6.562120 12.994200 -0.242716 4.980390 -90.432800 1.238030 -70.731500 5.348090 -0.000007 -0.000001 -69.717300 36.342000 -8.285220 24.328600 0.000019 0.000005 3.619310 9.303250 -21.368800 22.291600 -0.000001 0.000005 4.188290 5.487210 -6.026690 12.994500 -0.242716 -4.980390 88.649000 3.924640 -70.987700 -5.348130 -0.000001 -0.000004 -70.594100 -19.578600 -73.215400 -24.328900 0.000322 -0.000009 18.289400 -8.010990 -112.863000 -22.291500 -0.000108 -0.000004 22.416900 5.238460 1.735520 -2.192480 -6.469440 -0.000000 -176.370000 -10.521700 -1.266660 39.081100 -0.000007 -0.000012 -0.070351 0.226927 17.224200 40.985400 -0.000006 -0.000013 -0.734635 -0.232261 -64.021500 11.754300 -0.000000 0.000003 -0.000000 -0.000003 -16.577600 -2.192510 6.469440 -0.000001 178.867000 7.652380 -179.384000 -39.081100 -0.002282 -0.040193 -0.018866 0.093331 13.379100 -40.985400 0.000008 0.000006 2.059620 9.815450 -62.674100 -11.754300 -0.000006 -0.000006 -0.003364 -0.044656 -18.389300
0.000000 0.000000 0.000000 0.000000 0.000000 -0.000000 0.430613 92.941500 -0.471316 88.322000 -8.093710 1.740320 15.735700 0.000005 -0.000001 100.868000 87.087200 -101.111000 8.984550 -0.406207 -0.000000 -2.042600 1.118940 -0.466568 16.377300 -0.000001 -0.000001 2.077990 -1.174480 3.685780 6.456720 -0.000001 -0.000000 4.052770 0.453969 -6.609890 12.994200 -0.242716 4.980390 -90.441700 1.263690 -70.731400 5.348090 -0.000007 -0.000001 -69.720600 36.331200 -8.139150 24.328600 0.000019 0.000005 3.614680 9.288230 -21.375000 22.291600 -0.000001 0.000005 4.227650 5.485720 -5.968740 12.994500 -0.242716 -4.980390 88.643700 3.933660 -70.958900 -5.348130 -0.000001 -0.000004 -69.646000 -20.035700 -72.470000 -24.328900 0.000322 -0.000009 18.060700 -7.904030 -112.865000 -22.291500 -0.000108 -0.000004 22.418200 5.234930 1.827350 -2.192480 -6.469440 -0.000000 -176.403000 -10.501700 -1.338800 39.081100 -0.000007 -0.000012 -0.070780 0.229360 17.150100 40.985400 -0.000006 -0.000013 -0.694769 -0.107795 -63.921600 11.754300 -0.000000 0.000003 -0.000000 -0.000004 -16.577600 -2.192510 6.469440 -0.000001 178.882000 7.682940 -179.437000 -39.081100 -0.002282 -0.040193 -0.016347 0.082951 13.346700 -40.985400 0.000008 0.000006 2.225350 9.664910 -62.655900 -11.754300 -0.000006 -0.000006 -0.003583 -0.047033 -18.486100
0.000000 0.000000 0.000000 0.000000 0.000000 -0.000000 0.448308 92.940500 -0.525844 88.336200 -7.862070 1.801240 15.735700 0.000005 -0.000001 100.687000 87.041400 -100.929000 8.984550 -0.406207 -0.000000 -1.949230 1.117540 -0.463777 16.377300 -0.000001 -0.000001 2.074930 -1.257810 3.719940 6.456720 -0.000001 -0.000000 4.139570 0.302607 -6.608500 12.994200 -0.242716 4.980390 -90.456200 1.302690 -70.698000 5.348090 -0.000007 -0.000001 -69.711100 36.291500 -8.125930 24.328600 0.000019 0.000005 3.637250 9.343970 -21.381000 22.291600 -0.000001 0.000005 4.290500 5.484880 -5.936260 12.994500 -0.242716 -4.980390 88.641800 3.949030 -71.003200 -5.348130 -0.000001 -0.000004 -68.150800 -20.509800 -70.719300 -24.328900 0.000322 -0.000009 17.575500 -7.698130 -112.924000 -22.291500 -0.000108 -0.000004 22.138400 5.240410 1.684690 -2.192480 -6.469440 -0.000000 -176.454000 -10.183900 -1.393430 39.081100 -0.000007 -0.000012 -0.068373 0.220583 17.221500 40.985400 -0.000006 -0.000013 -0.679453 -0.180834 -63.901100 11.754300 -0.000000 0.000003 -0.000000 -0.000001 -16.577500 -2.192510 6.469440 -0.000001 178.863000 7.701610 -179.423000 -39.081100 -0.002282 -0.040193 -0.017028 0.085538 13.389500 -40.985400 0.000008 0.000006 2.145830 9.486990 -62.635600 -11.754300 -0.000006 -0.000006 -0.003420 -0.045263 -18.414000
0.000000 0.000000 0.000000 0.000000 0.000000 -0.000000 0.475579 92.939600 -0.585314 88.403800 -7.643010 1.798060 15.735700 0.000005 -0.000001 100.885000 87.016600 -101.153000 8.984550 -0.406207 -0.000000 -1.903920 1.149110 -0.516496 16.377300 -0.000001 -0.000001 2.108560 -1.324710 3.746860 6.456720 -0.000001 -0.000000 4.307120 0.192536 -6.490620 12.994200 -0.242716 4.980390 -90.481100 1.368680 -70.632500 5.348090 -0.000007 -0.000001 -69.611700 36.267000 -8.215390 24.328600 0.000019 0.000005 3.666190 9.395490 -21.429600 22.291600 -0.000001 0.000005 4.285940 5.483890 -5.897810 12.994500 -0.242716 -4.980390 88.601800 4.069110 -71.018200 -5.348130 -0.000001 -0.000004 -65.889400 -20.653900 -67.601700 -24.328900 0.000322 -0.000009 16.750900 -7.336190 -112.989000 -22.291500 -0.000108 -0.000004 22.089500 5.250450 1.420810 -2.192480 -6.469440 -0.000000 -176.545000 -10.024400 -1.488750 39.081100 -0.000007 -0.000012 -0.069045 0.222550 17.236300 40.985400 -0.000006 -0.000013 -0.650544 -0.125751 -63.848100 11.754300 -0.000000 0.000003 -0.000001 -0.000009 -16.577800 -2.192510 6.469440 -0.000001 178.789000 7.697130 -179.491000 -39.081100 -0.002282 -0.040193 -0.019872 0.097060 13.445900 -40.985400 0.000008 0.000006 1.893070 9.263290 -62.586200 -11.754300 -0.000006 -0.000006 -0.003317 -0.044142 -18.368400
0.000000 0.000000 0.000000 0.000000 0.000000 -0.000000 0.488754 92.946600 -0.646166 88.464500 -7.264440 1.862740 15.735700 0.000005 -0.000001 100.230000 86.964300 -100.532000 8.984550 -0.406207 -0.000000 -1.788340 1.103130 -0.586501 16.377300 -0.000001 -0.000001 2.097850 -1.493690 3.833870 6.456720 -0.000001 -0.000000 4.474420 -0.021919 -6.260650 12.994200 -0.242716 4.980390 -90.523700 1.485370 -70.575700 5.348090 -0.000007 -0.000001 -69.442700 36.202400 -8.374830 24.328600 0.000019 0.000005 3.649950 9.298930 -21.542600 22.291600 -0.000001 0.000005 4.357850 5.484000 -5.902160 12.994500 -0.242716 -4.980390 88.521800 4.286470 -70.952600 -5.348130 -0.000001 -0.000004 -62.786300 -19.950300 -63.017100 -24.328900 0.000322 -0.000009 14.764900 -6.447600 -113.077000 -22.291500 -0.000108 -0.000004 22.406600 5.256330 1.264740 -2.192480 -6.469440 -0.000000 -176.624000 -9.729330 -1.502560 39.081100 -0.000007 -0.000012 -0.067601 0.218481 17.192600 40.985400 -0.000006 -0.000013 -0.624467 -0.082001 -63.756500 11.754300 -0.000000 0.000003 -0.000000 -0.000002 -16.577500 -2.192510 6.469440 -0.000001 178.756000 7.741630 -179.466000 -39.081100 -0.002282 -0.040193 -0.018780 0.092170 13.491000 -40.985400 0.000008 0.000006 1.941460 8.930080 -62.601900 -11.754300 -0.000006 -0.000006 -0.003671 -0.047974 -18.524400
0.000000 0.000000 0.000000 0.000000 0.000000 -0.000000 0.484065 92.947100 -0.690971 88.523500 -6.849670 1.887320 15.735700 0.000005 -0.000001 99.788400 86.934000 -100.134000 8.984550 -0.406207 -0.000000 -1.720070 1.070840 -0.674513 16.377300 -0.000001 -0.000001 2.085880 -1.686130 3.927320 6.456720 -0.000001 -0.000000 4.742060 -0.253593 -5.873840 12.994200 -0.242716 4.980390 -90.560600 1.589040 -70.564600 5.348090 -0.000007 -0.000001 -69.246000 36.202200 -8.550230 24.328600 0.000019 0.000005 3.602520 9.121110 -21.660800 22.291600 -0.000001 0.000005 4.400420 5.484020 -5.903000 12.994500 -0.242716 -4.980390 88.372400 4.705050 -70.893300 -5.348130 -0.000001 -0.000004 -58.661400 -18.152600 -57.142200 -24.328900 0.000322 -0.000009 11.932200 -5.122420 -112.904000 -22.291500 -0.000108 -0.000004 22.782300 5.265790 1.011970 -2.192480 -6.469440 -0.000000 -176.693000 -9.453740 -1.578620 39.081100 -0.000007 -0.000012 -0.066093 0.213467 17.203400 40.985400 -0.000006 -0.000013 -0.590690 0.063772 -63.695800 11.754300 -0.000000 0.000003 -0.000000 -0.000006 -16.577700 -2.192510 6.469440 -0.000001 178.738000 7.750740 -179.482000 -39.081100 -0.002282 -0.040193 -0.019196 0.093303 13.574800 -40.985400 0.000008 0.000006 1.951590 8.507740 -62.644500 -11.754300 -0.000006 -0.000006 -0.004022 -0.051672 -18.675000
0.000000 0.000000 0.000000 0.000000 0.000000 -0.000000 0.462259 92.937800 -0.727823 88.559700 -6.401510 1.943740 15.735700 0.000005 -0.000001 99.437800 86.889500 -99.818800 8.984550 -0.406207 -0.000000 -1.625700 1.051090 -0.746878 16.377300 -0.000001 -0.000001 2.031660 -1.939290 4.036200 6.456720 -0.000001 -0.000000 5.090270 -0.531021 -5.444110 12.994200 -0.242716 4.980390 -90.565700 1.608410 -70.619700 5.348090 -0.000007 -0.000001 -69.191700 36.133300 -8.706420 24.328600 0.000019 0.000005 3.572890 9.002320 -21.753700 22.291600 -0.000001 0.000005 4.381580 5.486870 -6.013310 12.994500 -0.242716 -4.980390 88.192800 5.221150 -70.877300 -5.348130 -0.000001 -0.000004 -54.001800 -14.851600 -50.373600 -24.328900 0.000322 -0.000009 9.691170 -3.979590 -112.115000 -22.291500 -0.000108 -0.000004 22.904700 5.276940 0.709268 -2.192480 -6.469440 -0.000000 -176.709000 -9.172270 -1.673660 39.081100 -0.000007 -0.000012 -0.066418 0.212920 17.324700 40.985400 -0.000006 -0.000013 -0.575465 0.229071 -63.688400 11.754300 -0.000000 0.000003 -0.000000 -0.000001 -16.577500 -2.192510 6.469440 -0.000001 178.727000 7.798750 -179.462000 -39.081100 -0.002282 -0.040193 -0.021300 0.101297 13.667200 -40.985400 0.000008 0.000006 1.789150 8.149030 -62.670000 -11.754300 -0.000006 -0.000006 -0.004031 -0.051765 -18.678800
0.000000 0.000000 0.000000 0.000000 0.000000 -0.000000 0.435057 92.935500 -0.760072 88.616100 -5.919270 1.955910 15.735700 0.000005 -0.000001 99.547900 86.858600 -99.962200 8.984550 -0.406207 -0.000000 -1.566250 1.075650 -0.813717 16.377300 -0.000001 -0.000001 1.870940 -2.118180 4.153530 6.456720 -0.000001 -0.000000 5.574380 -0.836515 -5.007930 12.994200 -0.242716 4.980390 -90.571000 1.623590 -70.621400 5.348090 -0.000007 -0.000001 -69.123500 36.224900 -8.932820 24.328600 0.000019 0.000005 3.538590 8.876000 -21.839500 22.291600 -0.000001 0.000005 4.382470 5.488070 -6.060300 12.994500 -0.242716 -4.980390 88.020600 5.732860 -70.915000 -5.348130 -0.000001 -0.000004 -49.623200 -10.054500 -43.330100 -24.328900 0.000322 -0.000009 9.218560 -3.468950 -110.447000 -22.291500 -0.000108 -0.000004 22.027800 5.277640 0.692847 -2.192480 -6.469440 -0.000000 -176.741000 -8.954500 -1.774410 39.081100 -0.000007 -0.000012 -0.066906 0.214025 17.359500 40.985400 -0.000006 -0.000013 -0.548330 0.486064 -63.634400 11.754300 -0.000000 0.000003 -0.000000 -0.000008 -16.577800 -2.192510 6.469440 -0.000001 178.685000 8.010060 -179.443000 -39.081100 -0.002282 -0.040193 -0.023775 0.111302 13.687700 -40.985400 0.000008 0.000006 1.612630 7.905100 -62.665500 -11.754300 -0.000006 -0.000006 -0.003899 -0.050382 -18.622400
